<svg xmlns="http://www.w3.org/2000/svg" xmlns:xlink="http://www.w3.org/1999/xlink" width="29" height="31" viewBox="0 0 29 31"><desc>Created using Figma</desc><use fill="#FF5A5F" transform="matrix(.9694 0 0 .9694 -.007 0)" xlink:href="#a"/><defs><path id="a" fill-rule="evenodd" d="M28.1 19.896c.53 1.095.953 2.013 1.2 2.79 1.802 4.948-1.907 9.296-6.396 9.293-.036 0-.177 0-.354-.035h-.494c-2.331-.283-4.736-1.77-7.173-4.419-2.438 2.652-4.843 4.136-7.174 4.419h-.495c-.176.035-.317.035-.353.035-4.489 0-8.197-4.345-6.396-9.293.035-.106.176-.46.46-1.13l.74-1.625v-.07C4.174 14.523 6.509 9.72 8.734 5.407l.106-.212C10.252 2.26 11.633 0 14.883 0 18.17 0 19.3 1.946 20.89 5.196l.14.212c2.226 4.312 4.56 9.116 7.068 14.452v.036zm-.425 5.973c-.247 1.66-1.377 3.037-2.931 3.708-3.002 1.307-5.973-.777-8.516-3.603 4.207-5.266 4.984-9.363 3.18-12.015-1.06-1.52-2.58-2.26-4.525-2.26-3.921 0-6.079 3.32-5.231 7.173.494 2.083 1.801 4.453 3.885 7.102-1.307 1.448-2.543 2.473-3.638 3.109-.848.459-1.66.741-2.437.812-3.568.53-6.361-2.932-5.09-6.503.177-.459.53-1.306 1.13-2.613l.036-.07C5.48 16.465 7.85 11.662 10.57 6.325l.07-.177.778-1.483.063-.117c.556-1.014.819-1.494 1.738-2.073.46-.283 1.024-.424 1.66-.424 1.272 0 2.26.742 2.684 1.342.168.251.357.569.586.952l.001.002.19.318.742 1.448.106.212c2.72 5.337 5.09 10.14 7.032 14.382l.036.036.706 1.624.424 1.024c.325.816.396 1.629.29 2.477zm-12.792-1.52c-1.802-2.26-2.861-4.241-3.215-5.937-.353-1.377-.212-2.472.389-3.284.636-.954 1.59-1.413 2.826-1.413s2.19.459 2.825 1.413c.6.812.742 1.907.389 3.284-.389 1.731-1.448 3.709-3.214 5.938z"/></defs></svg>