<svg xmlns="http://www.w3.org/2000/svg" xmlns:xlink="http://www.w3.org/1999/xlink" width="20" height="21" viewBox="0 0 20 21"><desc>Created using Figma</desc><use fill="#484848" opacity=".64" transform="matrix(.99279 0 0 .99279 -.001 0)" xlink:href="#a"/><defs><path id="a" fill-rule="evenodd" d="M15.071 15.103l4.773 4.782c.287.287.191.765-.095 1.052a.748.748 0 0 1-1.05 0l-4.773-4.782v-.096a8.257 8.257 0 0 1-6.395 1.626A8.918 8.918 0 0 1 .085 7.642C.85 2.763 5.335-.584 10.108.085a8.918 8.918 0 0 1 7.445 10.044c-.286 2.008-1.145 3.634-2.482 4.974zM1.517 7.833c-.573 4.113 2.29 7.844 6.3 8.417 4.01.574 7.827-2.295 8.4-6.313.573-4.113-2.291-7.843-6.3-8.417-4.105-.574-7.827 2.296-8.4 6.313z"/></defs></svg>