<svg xmlns="http://www.w3.org/2000/svg" xmlns:xlink="http://www.w3.org/1999/xlink" width="24" height="24" viewBox="0 0 24 24">
    <desc>
        Created using Figma
    </desc>
    <use fill="#484848" transform="translate(3 3)" xlink:href="#a"/>
    <defs>
        <path id="a" fill-rule="evenodd" d="M16.5 0h-15C.66 0 0 .66 0 1.5v15c0 .84.66 1.5 1.5 1.5h15c.84 0 1.5-.66 1.5-1.5v-15c0-.84-.66-1.5-1.5-1.5zM9.093 11.36H6.9V8.965H9V6.957C9 5.32 10.299 3.943 11.833 3.8H14.3V6h-2.193c-.465 0-.822.469-.822.957v2.008h2.741v2.395h-2.74v5.84H9.092v-5.84zm2.836 5.84h4.393c.497 0 .878-.38.878-.878V1.678A.863.863 0 0 0 16.322.8H1.678a.863.863 0 0 0-.879.879v14.643c0 .497.38.878.879.878h6.735V11.93H6.071V8.414h2.343V6.95A3.844 3.844 0 0 1 11.9 3.143h3.251v3.514h-2.929c-.175 0-.292.117-.292.293v1.464h2.928v3.515H11.93V17.2z"/>
    </defs>
</svg>
