<svg xmlns="http://www.w3.org/2000/svg" xmlns:xlink="http://www.w3.org/1999/xlink" width="20" height="21" viewBox="0 0 20 21"><desc>Created using Figma</desc><use fill="#767676" transform="matrix(.95518 0 0 .95518 0 .005)" xlink:href="#a"/><defs><path id="a" fill-rule="evenodd" d="M19.318 13.678c.364.753.656 1.384.826 1.919 1.238 3.402-1.311 6.39-4.398 6.388-.024 0-.121 0-.242-.024h-.34c-1.603-.194-3.257-1.216-4.932-3.038-1.676 1.824-3.33 2.844-4.932 3.038h-.34c-.121.024-.219.024-.243.024-3.086 0-5.636-2.986-4.397-6.388.024-.073.121-.316.315-.777l.51-1.117v-.049c1.724-3.669 3.33-6.971 4.86-9.936l.072-.146C7.048 1.554 7.997 0 10.232 0c2.26 0 3.038 1.338 4.13 3.572l.097.146c1.53 2.965 3.135 6.267 4.86 9.936v.024zm-.291 4.107c-.17 1.14-.947 2.088-2.016 2.55-2.064.898-4.106-.535-5.854-2.478 2.892-3.62 3.426-6.437 2.185-8.26-.728-1.045-1.772-1.555-3.11-1.555-2.696 0-4.18 2.283-3.597 4.932.34 1.433 1.239 3.062 2.672 4.883-.899.996-1.749 1.7-2.502 2.137-.582.316-1.14.51-1.675.559-2.453.364-4.373-2.016-3.5-4.47.122-.316.365-.9.778-1.798l.024-.048c1.336-2.917 2.965-6.219 4.835-9.888l.048-.121.535-1.02.043-.08c.382-.698.563-1.028 1.195-1.426.316-.194.704-.291 1.141-.291.874 0 1.554.51 1.846.922.113.17.242.386.396.645l.008.012.13.218.51.995.073.146c1.87 3.67 3.499 6.971 4.834 9.888l.025.024.485 1.117.292.704c.223.561.272 1.12.199 1.703zm-8.795-1.044c-1.239-1.555-1.967-2.917-2.21-4.082-.243-.948-.146-1.7.267-2.259.437-.655 1.093-.971 1.943-.971.85 0 1.505.316 1.942.971.413.559.51 1.311.268 2.259-.268 1.19-.996 2.55-2.21 4.082z"/></defs></svg>